<svg xmlns="http://www.w3.org/2000/svg" width="512" height="512" viewBox="0 0 512 512">
  <defs>
    <linearGradient id="bg" x1="0" y1="0" x2="1" y2="1">
      <stop offset="0%" stop-color="#1a1a2e"/>
      <stop offset="100%" stop-color="#0f3460"/>
    </linearGradient>
  </defs>
  <rect width="512" height="512" fill="url(#bg)" rx="92"/>
  <!-- Title -->
  <text x="256" y="110" text-anchor="middle" fill="white" font-family="system-ui,sans-serif" font-weight="bold" font-size="48">CS</text>
  <!-- Tube 1 -->
  <rect x="108" y="140" width="60" height="230" rx="15" fill="rgba(255,255,255,0.12)" stroke="rgba(255,255,255,0.25)" stroke-width="2"/>
  <circle cx="138" cy="340" r="24" fill="#FF4444"/>
  <circle cx="138" cy="290" r="24" fill="#FF4444"/>
  <circle cx="138" cy="240" r="24" fill="#4488FF"/>
  <circle cx="138" cy="190" r="24" fill="#FFCC00"/>
  <!-- Tube 2 -->
  <rect x="226" y="140" width="60" height="230" rx="15" fill="rgba(255,255,255,0.12)" stroke="rgba(255,255,255,0.25)" stroke-width="2"/>
  <circle cx="256" cy="340" r="24" fill="#4488FF"/>
  <circle cx="256" cy="290" r="24" fill="#FFCC00"/>
  <circle cx="256" cy="240" r="24" fill="#44BB44"/>
  <circle cx="256" cy="190" r="24" fill="#44BB44"/>
  <!-- Tube 3 -->
  <rect x="344" y="140" width="60" height="230" rx="15" fill="rgba(255,255,255,0.12)" stroke="rgba(255,255,255,0.25)" stroke-width="2"/>
  <circle cx="374" cy="340" r="24" fill="#FFCC00"/>
  <circle cx="374" cy="290" r="24" fill="#44BB44"/>
  <circle cx="374" cy="240" r="24" fill="#FF4444"/>
  <circle cx="374" cy="190" r="24" fill="#4488FF"/>
  <!-- Tagline -->
  <text x="256" y="430" text-anchor="middle" fill="rgba(255,255,255,0.5)" font-family="system-ui,sans-serif" font-size="28">Sort · Solve · Relax</text>
</svg>
